<?xml version="1.0" encoding="UTF-8" standalone="no"?>
<!-- Created with Inkscape (http://www.inkscape.org/) -->

<svg
   width="151.95393mm"
   height="92.81385mm"
   viewBox="0 0 151.95393 92.81385"
   version="1.1"
   id="svg5"
   xml:space="preserve"
   xmlns="http://www.w3.org/2000/svg"
   xmlns:svg="http://www.w3.org/2000/svg"><defs
     id="defs2"><rect
       x="500.86884"
       y="516.83344"
       width="234.87946"
       height="103.20106"
       id="rect1064" /><rect
       x="97.082314"
       y="296.65118"
       width="222.96107"
       height="113.50054"
       id="rect170" /><filter
       x="0"
       y="0"
       width="1"
       height="1"
       id="cf1848742c"><feColorMatrix
         values="0 0 0 0 1 0 0 0 0 1 0 0 0 0 1 0 0 0 1 0"
         color-interpolation-filters="sRGB"
         id="feColorMatrix3809" /></filter><mask
       id="e7d5236b4c"><g
         filter="url(#cf1848742c)"
         id="g3814"><rect
           x="-37.5"
           width="450"
           fill="#000000"
           y="-37.5"
           height="450"
           fill-opacity="0.2"
           id="rect3812" /></g></mask><clipPath
       id="ef612eea0f"><path
         d="M 0.441406,0.398438 H 282.44141 V 172.48047 H 0.441406 Z m 0,0"
         clip-rule="nonzero"
         id="path3817" /></clipPath><clipPath
       id="9d45040804"><rect
         x="0"
         width="283"
         y="0"
         height="173"
         id="rect3820" /></clipPath><mask
       id="71df381225"><g
         filter="url(#cf1848742c)"
         id="g3825"><rect
           x="-37.5"
           width="450"
           fill="#000000"
           y="-37.5"
           height="450"
           fill-opacity="0.08"
           id="rect3823" /></g></mask><clipPath
       id="cc6ffad01c"><path
         d="M 0.480469,0.480469 H 169.92187 V 136.80078 H 0.480469 Z m 0,0"
         clip-rule="nonzero"
         id="path3828" /></clipPath><clipPath
       id="d36c560348"><rect
         x="0"
         width="170"
         y="0"
         height="137"
         id="rect3831" /></clipPath><mask
       id="023036c209"><g
         filter="url(#cf1848742c)"
         id="g3836"><rect
           x="-37.5"
           width="450"
           fill="#000000"
           y="-37.5"
           height="450"
           fill-opacity="0.08"
           id="rect3834" /></g></mask><clipPath
       id="1bc64c46af"><path
         d="M 1,0.078125 H 174.55859 V 124 H 1 Z m 0,0"
         clip-rule="nonzero"
         id="path3839" /></clipPath><clipPath
       id="e8664b36ae"><rect
         x="0"
         width="175"
         y="0"
         height="125"
         id="rect3842" /></clipPath><mask
       id="ad04b0e672"><g
         filter="url(#cf1848742c)"
         id="g3847"><rect
           x="-37.5"
           width="450"
           fill="#000000"
           y="-37.5"
           height="450"
           fill-opacity="0.08"
           id="rect3845" /></g></mask><clipPath
       id="6016738e47"><path
         d="M 0.0390625,0.601562 H 173.55859 V 126 H 0.0390625 Z m 0,0"
         clip-rule="nonzero"
         id="path3850" /></clipPath><clipPath
       id="c2c76366a4"><rect
         x="0"
         width="174"
         y="0"
         height="127"
         id="rect3853" /></clipPath><filter
       style="color-interpolation-filters:sRGB"
       id="filter4874"
       x="-0.12234558"
       y="-0.20998311"
       width="1.3466458"
       height="1.5949522"><feFlood
         flood-opacity="0.498039"
         flood-color="rgb(0,0,0)"
         result="flood"
         id="feFlood4864" /><feComposite
         in="flood"
         in2="SourceGraphic"
         operator="in"
         result="composite1"
         id="feComposite4866" /><feGaussianBlur
         in="composite1"
         stdDeviation="3"
         result="blur"
         id="feGaussianBlur4868" /><feOffset
         dx="6"
         dy="6"
         result="offset"
         id="feOffset4870" /><feComposite
         in="SourceGraphic"
         in2="offset"
         operator="over"
         result="fbSourceGraphic"
         id="feComposite4872" /><feColorMatrix
         result="fbSourceGraphicAlpha"
         in="fbSourceGraphic"
         values="0 0 0 -1 0 0 0 0 -1 0 0 0 0 -1 0 0 0 0 1 0"
         id="feColorMatrix7776" /><feFlood
         id="feFlood7778"
         flood-opacity="0.498039"
         flood-color="rgb(0,0,0)"
         result="flood"
         in="fbSourceGraphic" /><feComposite
         in2="fbSourceGraphic"
         id="feComposite7780"
         in="flood"
         operator="in"
         result="composite1" /><feGaussianBlur
         id="feGaussianBlur7782"
         in="composite1"
         stdDeviation="3"
         result="blur" /><feOffset
         id="feOffset7784"
         dx="6"
         dy="6"
         result="offset" /><feComposite
         in2="offset"
         id="feComposite7786"
         in="fbSourceGraphic"
         operator="over"
         result="fbSourceGraphic" /><feColorMatrix
         result="fbSourceGraphicAlpha"
         in="fbSourceGraphic"
         values="0 0 0 -1 0 0 0 0 -1 0 0 0 0 -1 0 0 0 0 1 0"
         id="feColorMatrix7788" /><feFlood
         id="feFlood7790"
         flood-opacity="0.498039"
         flood-color="rgb(0,0,0)"
         result="flood"
         in="fbSourceGraphic" /><feComposite
         in2="fbSourceGraphic"
         id="feComposite7792"
         in="flood"
         operator="in"
         result="composite1" /><feGaussianBlur
         id="feGaussianBlur7794"
         in="composite1"
         stdDeviation="3"
         result="blur" /><feOffset
         id="feOffset7796"
         dx="6"
         dy="6"
         result="offset" /><feComposite
         in2="offset"
         id="feComposite7798"
         in="fbSourceGraphic"
         operator="over"
         result="composite2" /></filter><filter
       style="color-interpolation-filters:sRGB"
       id="filter6350"
       x="-0.073465414"
       y="-0.24779746"
       width="1.2081521"
       height="1.7020928"><feFlood
         flood-opacity="0.498039"
         flood-color="rgb(0,0,0)"
         result="flood"
         id="feFlood6340" /><feComposite
         in="flood"
         in2="SourceGraphic"
         operator="in"
         result="composite1"
         id="feComposite6342" /><feGaussianBlur
         in="composite1"
         stdDeviation="3"
         result="blur"
         id="feGaussianBlur6344" /><feOffset
         dx="6"
         dy="6"
         result="offset"
         id="feOffset6346" /><feComposite
         in="SourceGraphic"
         in2="offset"
         operator="over"
         result="fbSourceGraphic"
         id="feComposite6348" /><feColorMatrix
         result="fbSourceGraphicAlpha"
         in="fbSourceGraphic"
         values="0 0 0 -1 0 0 0 0 -1 0 0 0 0 -1 0 0 0 0 1 0"
         id="feColorMatrix6352" /><feFlood
         id="feFlood6354"
         flood-opacity="0.498039"
         flood-color="rgb(0,0,0)"
         result="flood"
         in="fbSourceGraphic" /><feComposite
         in2="fbSourceGraphic"
         id="feComposite6356"
         in="flood"
         operator="in"
         result="composite1" /><feGaussianBlur
         id="feGaussianBlur6358"
         in="composite1"
         stdDeviation="3"
         result="blur" /><feOffset
         id="feOffset6360"
         dx="6"
         dy="6"
         result="offset" /><feComposite
         in2="offset"
         id="feComposite6362"
         in="fbSourceGraphic"
         operator="over"
         result="composite2" /></filter><filter
       style="color-interpolation-filters:sRGB"
       id="filter526"
       x="-0.024701815"
       y="-0.033397961"
       width="1.0699885"
       height="1.0946276"><feFlood
         flood-opacity="0.498039"
         flood-color="rgb(0,0,0)"
         result="flood"
         id="feFlood516" /><feComposite
         in="flood"
         in2="SourceGraphic"
         operator="in"
         result="composite1"
         id="feComposite518" /><feGaussianBlur
         in="composite1"
         stdDeviation="3"
         result="blur"
         id="feGaussianBlur520" /><feOffset
         dx="6"
         dy="6"
         result="offset"
         id="feOffset522" /><feComposite
         in="SourceGraphic"
         in2="offset"
         operator="over"
         result="composite2"
         id="feComposite524" /></filter></defs><g
     id="g3985"
     transform="matrix(0.30339131,-0.00767922,0.00759637,0.30670018,-11.347197,-9.6136514)"
     style="filter:url(#filter526)"><path
       fill="#f15d65"
       d="m 42.90625,178.26172 c 0,0 61.01172,112.21484 61.01172,112.21484 0,0 115.70312,-43.05859 115.70312,-43.05859 0,0 19.45313,-6.48438 19.45313,-6.48438 0,0 95.30859,-27.48437 95.30859,-27.48437 0,0 -98.80078,-99.52344 -98.80078,-99.52344 0,0 -192.67578,64.33594 -192.67578,64.33594 z m 0,0"
       fill-opacity="1"
       fill-rule="nonzero"
       id="path3858" /><path
       fill="#f15d65"
       d="m 215.33984,247.375 c 0,1 1.4961,4.48828 4.15625,4.48828 2.66016,0 17.57813,-4.74609 18.67578,-6.53906 1.53125,-2.49219 0.27735,-4.875 -0.88671,-5.04297 -1.16407,-0.16406 -21.94532,7.09375 -21.94532,7.09375 z m 0,0"
       fill-opacity="1"
       fill-rule="nonzero"
       id="path3860" /><path
       fill="#fffbe6"
       d="m 53.046875,160.64062 c 0,0 -3.324219,10.80469 -3.324219,10.80469 0,0 58.683594,110.71485 58.683594,110.71485 0,0 82.03906,-48.83594 112.58594,-36.63672 0,0 -0.0391,-5.58594 5.44531,-7.08203 5.48828,-1.4961 6.50781,3.07031 6.50781,3.07031 0,0 37.37891,-39.47656 98.22656,-37.81641 0,0 -89.77343,-92.92968 -89.77343,-92.92968 0,0 -88.9375,34.57812 -88.9375,34.57812 0,0 -99.414065,15.29687 -99.414065,15.29687 z m 0,0"
       fill-opacity="1"
       fill-rule="nonzero"
       id="path3862" /><g
       mask="url(#e7d5236b4c)"
       id="g3872"><g
         transform="translate(49,110)"
         id="g3870"><g
           clip-path="url(#9d45040804)"
           id="g3868"><g
             clip-path="url(#ef612eea0f)"
             id="g3866"><path
               fill="#f15d65"
               d="m 4.046875,50.640625 c 0,0 -3.324219,10.804687 -3.324219,10.804687 0,0 58.683594,110.718748 58.683594,110.718748 0,0 82.03906,-48.83984 112.58594,-36.64062 0,0 -0.0391,-5.58594 5.44531,-7.08203 5.48828,-1.4961 6.50781,3.07031 6.50781,3.07031 0,0 37.38281,-39.476564 98.22656,-37.816408 0,0 -89.77343,-92.929687 -89.77343,-92.929687 0,0 -88.9375,34.578125 -88.9375,34.578125 0,0 -99.414065,15.296875 -99.414065,15.296875 z m 0,0"
               fill-opacity="1"
               fill-rule="nonzero"
               id="path3864" /></g></g></g></g><path
       fill="#fffbe6"
       d="m 150.59766,142.30078 c 21.51953,-17.28906 43.86328,-21.53515 83.13281,-39.49219 0,0 85.94531,88.98828 85.94531,88.98828 0,0 -63.77734,2.55079 -93.23828,46.64454 0,0 -75.83984,-96.14063 -75.83984,-96.14063 z m 0,0"
       fill-opacity="1"
       fill-rule="nonzero"
       id="path3874" /><g
       mask="url(#71df381225)"
       id="g3884"><g
         transform="translate(150,102)"
         id="g3882"><g
           clip-path="url(#d36c560348)"
           id="g3880"><g
             clip-path="url(#cc6ffad01c)"
             id="g3878"><path
               fill="#f15d65"
               d="M 0.597656,40.300781 C 22.117188,23.011719 44.460938,18.765625 83.730469,0.808594 c 0,0 85.945311,88.988281 85.945311,88.988281 0,0 -63.77734,2.550781 -93.23828,46.644535 0,0 -75.839844,-96.140629 -75.839844,-96.140629 z m 0,0"
               fill-opacity="1"
               fill-rule="nonzero"
               id="path3876" /></g></g></g></g><path
       fill="#fffbe6"
       d="m 226.4375,238.44141 c 0,0 -32.25,-13.46485 -57.01953,-3.66016 -24.76953,9.80859 -53.86328,31.08984 -53.86328,31.08984 0,0 -62.507815,-105.23047 -62.507815,-105.23047 0,0 97.550785,-18.33984 97.550785,-18.33984 0,0 75.83984,96.14063 75.83984,96.14063 z m 0,0"
       fill-opacity="1"
       fill-rule="nonzero"
       id="path3886" /><g
       mask="url(#023036c209)"
       id="g3896"><g
         transform="translate(52,142)"
         id="g3894"><g
           clip-path="url(#e8664b36ae)"
           id="g3892"><g
             clip-path="url(#1bc64c46af)"
             id="g3890"><path
               fill="#f15d65"
               d="m 174.4375,96.441406 c 0,0 -32.25,-13.464844 -57.01953,-3.660156 -24.769532,9.80859 -53.863282,31.08984 -53.863282,31.08984 0,0 -62.507813,-105.230465 -62.507813,-105.230465 0,0 97.550781,-18.339844 97.550781,-18.339844 0,0 75.839844,96.140625 75.839844,96.140625 z m 0,0"
               fill-opacity="1"
               fill-rule="nonzero"
               id="path3888" /></g></g></g></g><path
       fill="#fffbe6"
       d="m 150.59766,142.30078 c -33.21875,-1.78906 -54.574222,2.69141 -97.226566,18.00781 0,0 62.164066,106.62891 62.164066,106.62891 47.97656,-38.64453 80.13671,-39.96094 110.90234,-28.49609 0,0 -75.83984,-96.14063 -75.83984,-96.14063 z m 0,0"
       fill-opacity="1"
       fill-rule="nonzero"
       id="path3898" /><g
       mask="url(#ad04b0e672)"
       id="g3908"><g
         transform="translate(53,141)"
         id="g3906"><g
           clip-path="url(#c2c76366a4)"
           id="g3904"><g
             clip-path="url(#6016738e47)"
             id="g3902"><path
               fill="#f15d65"
               d="M 97.597656,1.300781 C 64.378906,-0.488281 43.023438,3.992188 0.371094,19.308594 c 0,0 62.164062,106.628906 62.164062,106.628906 C 110.51172,87.292969 142.67187,85.976562 173.4375,97.441406 c 0,0 -75.839844,-96.140625 -75.839844,-96.140625 z m 0,0"
               fill-opacity="1"
               fill-rule="nonzero"
               id="path3900" /></g></g></g></g><path
       fill="#fffbe6"
       d="m 150.59766,142.30078 c -10.54688,-24.46094 -26.62891,-49.503905 -37.78125,-67.406249 0,0 85.36328,74.996089 85.36328,74.996089 24.38281,37.54297 26.7539,64.16797 28.25781,88.55079 0,0 -75.83984,-96.14063 -75.83984,-96.14063 z m 0,0"
       fill-opacity="1"
       fill-rule="nonzero"
       id="path3910" /><path
       fill="#fffbe6"
       d="m 150.59766,142.30078 c 31.36718,-25.78125 50.74218,-29.60156 82.29687,-39.46094 0,0 85.89063,88.70313 85.89063,88.70313 -41.25782,10.125 -72.36719,16.1914 -92.34766,46.89844 0,0 -75.83984,-96.14063 -75.83984,-96.14063 z m 0,0"
       fill-opacity="1"
       fill-rule="nonzero"
       id="path3912" /><path
       fill="#fffbe6"
       d="m 150.59766,142.30078 c 31.36718,-25.78125 50.74218,-29.60156 82.29687,-39.46094 0,0 85.89063,88.70313 85.89063,88.70313 -41.25782,10.125 -72.36719,16.1914 -92.34766,46.89844 0,0 -75.83984,-96.14063 -75.83984,-96.14063 z m 0,0"
       fill-opacity="1"
       fill-rule="nonzero"
       id="path3914" /><path
       fill="#fffbe6"
       d="m 150.59766,142.30078 c 31.36718,-25.78125 50.74218,-29.60156 82.29687,-39.46094 0,0 85.89063,88.70313 85.89063,88.70313 -41.25782,10.125 -72.36719,16.1914 -92.34766,46.89844 0,0 -75.83984,-96.14063 -75.83984,-96.14063 z m 0,0"
       fill-opacity="1"
       fill-rule="nonzero"
       id="path3916" /><path
       fill="#fffbe6"
       d="m 150.59766,142.30078 c 31.36718,-25.78125 50.74218,-29.60156 82.29687,-39.46094 0,0 85.89063,88.70313 85.89063,88.70313 -41.25782,10.125 -72.36719,16.1914 -92.34766,46.89844 0,0 -75.83984,-96.14063 -75.83984,-96.14063 z m 0,0"
       fill-opacity="1"
       fill-rule="nonzero"
       id="path3918" /></g><g
     id="layer3"
     transform="translate(-46.327779,-44.53286)"><text
       xml:space="preserve"
       transform="matrix(0.41432175,0,0,0.43542133,-101.59791,-136.68249)"
       id="text1062"
       style="font-style:normal;font-variant:normal;font-weight:600;font-stretch:normal;font-size:91.363px;line-height:0;font-family:'URW Bookman';-inkscape-font-specification:'URW Bookman Semi-Bold';letter-spacing:2.34221px;word-spacing:0px;white-space:pre;shape-inside:url(#rect1064);display:inline;fill:#fe98fa;fill-opacity:1;filter:url(#filter4874)"><tspan
         x="500.86914"
         y="539.88051"
         id="tspan5168"><tspan
           style="font-weight:normal;font-family:Knewave;-inkscape-font-specification:'Knewave, Normal';fill:#13e7fb"
           id="tspan5166">vely</tspan></tspan></text></g><g
     id="layer2"
     transform="translate(-44.658856,-43.919226)"><text
       xml:space="preserve"
       transform="matrix(0.36789452,0,0,0.4252361,16.570526,-84.408977)"
       id="text168"
       style="font-size:85.3333px;white-space:pre;shape-inside:url(#rect170);display:inline;fill:#fe98fa;fill-opacity:1;filter:url(#filter6350)"><tspan
         x="97.082031"
         y="374.29304"
         id="tspan5172"><tspan
           style="font-weight:600;font-family:'URW Bookman';-inkscape-font-specification:'URW Bookman Semi-Bold'"
           id="tspan5170">LAW</tspan></tspan></text></g></svg>
