<svg xmlns="http://www.w3.org/2000/svg" xmlns:xlink="http://www.w3.org/1999/xlink" width="500" zoomAndPan="magnify" viewBox="0 0 375 374.999991" height="500" preserveAspectRatio="xMidYMid meet" version="1.0"><defs><filter x="0%" y="0%" width="100%" height="100%" id="cf1848742c"><feColorMatrix values="0 0 0 0 1 0 0 0 0 1 0 0 0 0 1 0 0 0 1 0" color-interpolation-filters="sRGB"/></filter><mask id="e7d5236b4c"><g filter="url(#cf1848742c)"><rect x="-37.5" width="450" fill="#000000" y="-37.499999" height="449.999989" fill-opacity="0.2"/></g></mask><clipPath id="ef612eea0f"><path d="M 0.441406 0.398438 L 282.441406 0.398438 L 282.441406 172.480469 L 0.441406 172.480469 Z M 0.441406 0.398438 " clip-rule="nonzero"/></clipPath><clipPath id="9d45040804"><rect x="0" width="283" y="0" height="173"/></clipPath><mask id="71df381225"><g filter="url(#cf1848742c)"><rect x="-37.5" width="450" fill="#000000" y="-37.499999" height="449.999989" fill-opacity="0.08"/></g></mask><clipPath id="cc6ffad01c"><path d="M 0.480469 0.480469 L 169.921875 0.480469 L 169.921875 136.800781 L 0.480469 136.800781 Z M 0.480469 0.480469 " clip-rule="nonzero"/></clipPath><clipPath id="d36c560348"><rect x="0" width="170" y="0" height="137"/></clipPath><mask id="023036c209"><g filter="url(#cf1848742c)"><rect x="-37.5" width="450" fill="#000000" y="-37.499999" height="449.999989" fill-opacity="0.08"/></g></mask><clipPath id="1bc64c46af"><path d="M 1 0.078125 L 174.558594 0.078125 L 174.558594 124 L 1 124 Z M 1 0.078125 " clip-rule="nonzero"/></clipPath><clipPath id="e8664b36ae"><rect x="0" width="175" y="0" height="125"/></clipPath><mask id="ad04b0e672"><g filter="url(#cf1848742c)"><rect x="-37.5" width="450" fill="#000000" y="-37.499999" height="449.999989" fill-opacity="0.08"/></g></mask><clipPath id="6016738e47"><path d="M 0.0390625 0.601562 L 173.558594 0.601562 L 173.558594 126 L 0.0390625 126 Z M 0.0390625 0.601562 " clip-rule="nonzero"/></clipPath><clipPath id="c2c76366a4"><rect x="0" width="174" y="0" height="127"/></clipPath></defs><path fill="#f15d65" d="M 42.90625 178.261719 C 42.90625 178.261719 103.917969 290.476562 103.917969 290.476562 C 103.917969 290.476562 219.621094 247.417969 219.621094 247.417969 C 219.621094 247.417969 239.074219 240.933594 239.074219 240.933594 C 239.074219 240.933594 334.382812 213.449219 334.382812 213.449219 C 334.382812 213.449219 235.582031 113.925781 235.582031 113.925781 C 235.582031 113.925781 42.90625 178.261719 42.90625 178.261719 Z M 42.90625 178.261719 " fill-opacity="1" fill-rule="nonzero"/><path fill="#f15d65" d="M 215.339844 247.375 C 215.339844 248.375 216.835938 251.863281 219.496094 251.863281 C 222.15625 251.863281 237.074219 247.117188 238.171875 245.324219 C 239.703125 242.832031 238.449219 240.449219 237.285156 240.28125 C 236.121094 240.117188 215.339844 247.375 215.339844 247.375 Z M 215.339844 247.375 " fill-opacity="1" fill-rule="nonzero"/><path fill="#fffbe6" d="M 53.046875 160.640625 C 53.046875 160.640625 49.722656 171.445312 49.722656 171.445312 C 49.722656 171.445312 108.40625 282.160156 108.40625 282.160156 C 108.40625 282.160156 190.445312 233.324219 220.992188 245.523438 C 220.992188 245.523438 220.953125 239.9375 226.4375 238.441406 C 231.925781 236.945312 232.945312 241.511719 232.945312 241.511719 C 232.945312 241.511719 270.324219 202.035156 331.171875 203.695312 C 331.171875 203.695312 241.398438 110.765625 241.398438 110.765625 C 241.398438 110.765625 152.460938 145.34375 152.460938 145.34375 C 152.460938 145.34375 53.046875 160.640625 53.046875 160.640625 Z M 53.046875 160.640625 " fill-opacity="1" fill-rule="nonzero"/><g mask="url(#e7d5236b4c)"><g transform="matrix(1, 0, 0, 1, 49, 110)"><g clip-path="url(#9d45040804)"><g clip-path="url(#ef612eea0f)"><path fill="#f15d65" d="M 4.046875 50.640625 C 4.046875 50.640625 0.722656 61.445312 0.722656 61.445312 C 0.722656 61.445312 59.40625 172.164062 59.40625 172.164062 C 59.40625 172.164062 141.445312 123.324219 171.992188 135.523438 C 171.992188 135.523438 171.953125 129.9375 177.4375 128.441406 C 182.925781 126.945312 183.945312 131.511719 183.945312 131.511719 C 183.945312 131.511719 221.328125 92.035156 282.171875 93.695312 C 282.171875 93.695312 192.398438 0.765625 192.398438 0.765625 C 192.398438 0.765625 103.460938 35.34375 103.460938 35.34375 C 103.460938 35.34375 4.046875 50.640625 4.046875 50.640625 Z M 4.046875 50.640625 " fill-opacity="1" fill-rule="nonzero"/></g></g></g></g><path fill="#fffbe6" d="M 150.597656 142.300781 C 172.117188 125.011719 194.460938 120.765625 233.730469 102.808594 C 233.730469 102.808594 319.675781 191.796875 319.675781 191.796875 C 319.675781 191.796875 255.898438 194.347656 226.4375 238.441406 C 226.4375 238.441406 150.597656 142.300781 150.597656 142.300781 Z M 150.597656 142.300781 " fill-opacity="1" fill-rule="nonzero"/><g mask="url(#71df381225)"><g transform="matrix(1, 0, 0, 1, 150, 102)"><g clip-path="url(#d36c560348)"><g clip-path="url(#cc6ffad01c)"><path fill="#f15d65" d="M 0.597656 40.300781 C 22.117188 23.011719 44.460938 18.765625 83.730469 0.808594 C 83.730469 0.808594 169.675781 89.796875 169.675781 89.796875 C 169.675781 89.796875 105.898438 92.347656 76.4375 136.441406 C 76.4375 136.441406 0.597656 40.300781 0.597656 40.300781 Z M 0.597656 40.300781 " fill-opacity="1" fill-rule="nonzero"/></g></g></g></g><path fill="#fffbe6" d="M 226.4375 238.441406 C 226.4375 238.441406 194.1875 224.976562 169.417969 234.78125 C 144.648438 244.589844 115.554688 265.871094 115.554688 265.871094 C 115.554688 265.871094 53.046875 160.640625 53.046875 160.640625 C 53.046875 160.640625 150.597656 142.300781 150.597656 142.300781 C 150.597656 142.300781 226.4375 238.441406 226.4375 238.441406 Z M 226.4375 238.441406 " fill-opacity="1" fill-rule="nonzero"/><g mask="url(#023036c209)"><g transform="matrix(1, 0, 0, 1, 52, 142)"><g clip-path="url(#e8664b36ae)"><g clip-path="url(#1bc64c46af)"><path fill="#f15d65" d="M 174.4375 96.441406 C 174.4375 96.441406 142.1875 82.976562 117.417969 92.78125 C 92.648438 102.589844 63.554688 123.871094 63.554688 123.871094 C 63.554688 123.871094 1.046875 18.640625 1.046875 18.640625 C 1.046875 18.640625 98.597656 0.300781 98.597656 0.300781 C 98.597656 0.300781 174.4375 96.441406 174.4375 96.441406 Z M 174.4375 96.441406 " fill-opacity="1" fill-rule="nonzero"/></g></g></g></g><path fill="#fffbe6" d="M 150.597656 142.300781 C 117.378906 140.511719 96.023438 144.992188 53.371094 160.308594 C 53.371094 160.308594 115.535156 266.9375 115.535156 266.9375 C 163.511719 228.292969 195.671875 226.976562 226.4375 238.441406 C 226.4375 238.441406 150.597656 142.300781 150.597656 142.300781 Z M 150.597656 142.300781 " fill-opacity="1" fill-rule="nonzero"/><g mask="url(#ad04b0e672)"><g transform="matrix(1, 0, 0, 1, 53, 141)"><g clip-path="url(#c2c76366a4)"><g clip-path="url(#6016738e47)"><path fill="#f15d65" d="M 97.597656 1.300781 C 64.378906 -0.488281 43.023438 3.992188 0.371094 19.308594 C 0.371094 19.308594 62.535156 125.9375 62.535156 125.9375 C 110.511719 87.292969 142.671875 85.976562 173.4375 97.441406 C 173.4375 97.441406 97.597656 1.300781 97.597656 1.300781 Z M 97.597656 1.300781 " fill-opacity="1" fill-rule="nonzero"/></g></g></g></g><path fill="#fffbe6" d="M 150.597656 142.300781 C 140.050781 117.839844 123.96875 92.796875 112.816406 74.894531 C 112.816406 74.894531 198.179688 149.890625 198.179688 149.890625 C 222.5625 187.433594 224.933594 214.058594 226.4375 238.441406 C 226.4375 238.441406 150.597656 142.300781 150.597656 142.300781 Z M 150.597656 142.300781 " fill-opacity="1" fill-rule="nonzero"/><path fill="#fffbe6" d="M 150.597656 142.300781 C 181.964844 116.519531 201.339844 112.699219 232.894531 102.839844 C 232.894531 102.839844 318.785156 191.542969 318.785156 191.542969 C 277.527344 201.667969 246.417969 207.734375 226.4375 238.441406 C 226.4375 238.441406 150.597656 142.300781 150.597656 142.300781 Z M 150.597656 142.300781 " fill-opacity="1" fill-rule="nonzero"/><path fill="#fffbe6" d="M 150.597656 142.300781 C 181.964844 116.519531 201.339844 112.699219 232.894531 102.839844 C 232.894531 102.839844 318.785156 191.542969 318.785156 191.542969 C 277.527344 201.667969 246.417969 207.734375 226.4375 238.441406 C 226.4375 238.441406 150.597656 142.300781 150.597656 142.300781 Z M 150.597656 142.300781 " fill-opacity="1" fill-rule="nonzero"/><path fill="#fffbe6" d="M 150.597656 142.300781 C 181.964844 116.519531 201.339844 112.699219 232.894531 102.839844 C 232.894531 102.839844 318.785156 191.542969 318.785156 191.542969 C 277.527344 201.667969 246.417969 207.734375 226.4375 238.441406 C 226.4375 238.441406 150.597656 142.300781 150.597656 142.300781 Z M 150.597656 142.300781 " fill-opacity="1" fill-rule="nonzero"/><path fill="#fffbe6" d="M 150.597656 142.300781 C 181.964844 116.519531 201.339844 112.699219 232.894531 102.839844 C 232.894531 102.839844 318.785156 191.542969 318.785156 191.542969 C 277.527344 201.667969 246.417969 207.734375 226.4375 238.441406 C 226.4375 238.441406 150.597656 142.300781 150.597656 142.300781 Z M 150.597656 142.300781 " fill-opacity="1" fill-rule="nonzero"/></svg>