<?xml version="1.0" encoding="UTF-8" standalone="no"?>
<!-- Created with Inkscape (http://www.inkscape.org/) -->

<svg
   width="83.470291mm"
   height="51.956978mm"
   viewBox="0 0 83.470291 51.956978"
   version="1.1"
   id="svg5"
   xml:space="preserve"
   xmlns="http://www.w3.org/2000/svg"
   xmlns:svg="http://www.w3.org/2000/svg"><defs
     id="defs2"><rect
       x="500.86884"
       y="516.83344"
       width="234.87946"
       height="103.20106"
       id="rect1064" /><rect
       x="97.082314"
       y="296.65118"
       width="222.96107"
       height="113.50054"
       id="rect170" /></defs><g
     id="layer4"
     transform="matrix(0.77054712,0,0,0.74743454,-21.862448,-113.29385)"><path
       style="fill:#000000;fill-opacity:1;stroke-width:0.740502"
       d="m 313.81607,551.53154 c -1.65573,-0.44068 -5.27904,-2.8994 -9.11229,-6.18346 -10.75734,-9.21617 -9.75911,-8.86157 -24.79388,-8.80755 -14.21475,0.0511 -18.80546,0.68003 -41.09788,5.63075 -18.12312,4.02479 -31.28569,6.54098 -34.21689,6.54098 -2.15194,0 -2.43798,-0.23339 -2.43798,-1.98923 0,-1.09407 1.79728,-5.17609 3.99395,-9.07115 2.19667,-3.89506 5.88271,-11.74709 8.19121,-17.44896 2.3085,-5.70187 5.63311,-13.07273 7.38804,-16.37969 1.8339,-3.45578 3.7266,-8.42108 4.4508,-11.67625 0.88871,-3.99459 1.99005,-6.61997 3.73724,-8.90891 1.36246,-1.78492 5.81987,-8.19352 9.90536,-14.24133 10.90876,-16.14842 9.38453,-14.78355 15.29377,-13.69474 7.93189,1.46151 27.10979,8.29771 39.97268,14.24875 11.57098,5.35334 11.99728,5.63304 18.2305,11.96092 5.59263,5.67757 6.70085,6.47939 8.95524,6.47939 2.17361,0 3.05186,-0.56817 5.66079,-3.66221 6.04564,-7.16976 24.77131,-17.6477 41.83677,-23.40973 7.33849,-2.47779 8.63184,-2.72233 9.70175,-1.83438 1.08965,0.90432 0.0345,1.44246 -8.99318,4.58678 -11.61445,4.04527 -24.92736,10.30408 -32.05054,15.06794 -2.65937,1.77854 -7.16779,5.59755 -10.01873,8.48669 l -5.18351,5.25298 0.23666,14.94162 c 0.13017,8.21789 0.40321,15.21111 0.60677,15.54047 0.20356,0.32937 3.06268,-1.87876 6.35361,-4.90695 10.48795,-9.65064 26.15749,-17.86387 43.89917,-23.00987 7.93532,-2.30165 24.31874,-5.3954 32.58214,-6.15263 5.9088,-0.54146 5.9221,-0.54748 5.7775,-2.6133 -0.0801,-1.1444 -1.77935,-4.28834 -3.79888,-7.02864 -2.00967,-2.72693 -4.57242,-6.78614 -5.69499,-9.02046 -1.12258,-2.23432 -2.79479,-5.25641 -3.71605,-6.71576 -1.52581,-2.41704 -1.56627,-2.72254 -0.45434,-3.43012 1.0186,-0.64817 1.58838,-0.12335 3.44216,3.17054 1.22183,2.17102 4.52238,7.37539 7.33457,11.56528 6.1795,9.20691 8.42348,13.52255 8.79259,16.90998 0.15318,1.40582 3.19492,8.49946 6.75942,15.76364 3.56451,7.26418 6.95958,14.81947 7.54463,16.78954 0.58505,1.97007 2.22472,5.27368 3.6437,7.34135 1.41898,2.06767 3.74625,5.45901 5.17172,7.53632 2.73931,3.99196 3.25327,6.60026 1.57499,7.99311 -1.11949,0.92909 -17.79725,-1.66865 -37.11911,-5.78172 -10.77713,-2.29413 -25.26969,-4.51387 -39.24885,-6.01151 -11.97729,-1.28317 -14.36841,-0.48875 -26.62536,8.84591 -4.08953,3.11453 -8.4352,6.04225 -9.65703,6.50607 -3.12428,1.18602 -13.53513,1.69332 -16.81824,0.81954 z m -71.03691,-17.60645 c 14.33356,-3.99419 21.5208,-5.20868 33.79848,-5.71122 12.02987,-0.49239 19.95927,0.74695 27.46328,4.29242 5.0804,2.40038 6.22957,2.60173 6.22957,1.09149 0,-1.30372 -3.71966,-4.47996 -7.51238,-6.41486 -3.60324,-1.83824 -15.32449,-3.64189 -23.58871,-3.62981 -11.07887,0.0162 -27.89135,2.96178 -41.46814,7.26532 -3.86912,1.22642 -10.27908,3.0793 -14.24436,4.11752 -7.10217,1.85952 -12.60861,4.14888 -13.51794,5.6202 -1.64855,2.66742 2.41917,1.84607 32.8402,-6.63106 z m 84.51495,7.56612 c 3.32426,-1.66576 4.52731,-4.71851 2.66881,-6.77213 -2.56314,-2.83223 -11.94465,-2.90131 -15.38771,-0.11329 -1.42374,1.15288 -1.5713,1.67584 -0.95753,3.39352 1.50676,4.21681 8.61029,6.0305 13.67643,3.4919 z m 108.86179,-1.20354 c 0,-2.75355 -31.30295,-12.06219 -51.18727,-15.22169 -18.12397,-2.8798 -28.40765,-2.70715 -39.26633,0.65923 -5.10898,1.58387 -11.771,5.55707 -12.3443,7.3621 -0.49562,1.56042 5.03041,0.6172 9.72601,-1.6601 2.11274,-1.02466 6.00427,-2.24908 8.64783,-2.72094 6.65703,-1.18824 24.97845,-0.999 32.58889,0.3366 7.88299,1.38343 27.91523,6.24479 39.61688,9.61411 9.84061,2.83345 12.21829,3.15078 12.21829,1.63069 z m -207.13994,-8.90784 c 26.93874,-8.12936 40.53535,-10.53026 55.95134,-9.87992 10.25858,0.43277 16.2456,2.11796 22.97356,6.46645 3.96483,2.5626 4.664,2.80086 5.07512,1.7295 0.33699,-0.87818 -0.54582,-2.16838 -3.01059,-4.39987 -4.59809,-4.16293 -10.7959,-7.12747 -15.76199,-7.53929 -3.37165,-0.27961 -3.8021,-0.47271 -2.75707,-1.23686 0.6811,-0.49803 1.01451,-1.26772 0.74091,-1.71041 -1.48922,-2.40962 -18.78853,-6.52407 -30.55605,-7.26743 -6.02568,-0.38064 -9.21923,-0.12447 -18.1929,1.45933 -12.65693,2.23388 -19.30775,4.65997 -23.72237,8.65346 -3.03929,2.74937 -3.08708,2.85879 -1.2615,2.88801 1.04361,0.0167 4.87571,-0.98571 8.51577,-2.22759 16.32844,-5.57076 30.62082,-7.61881 41.05167,-5.88256 3.05457,0.50844 6.88667,1.05732 8.51578,1.21973 1.6291,0.1624 5.29459,0.89677 8.14552,1.63192 l 5.18352,1.33664 -11.47779,0.44825 c -14.28662,0.55795 -20.46953,1.67721 -40.13164,7.26485 -16.26389,4.62192 -25.20681,8.28543 -25.63346,10.50089 -0.13651,0.70883 -0.0501,1.28879 0.19195,1.28879 0.24208,0 7.51418,-2.13475 16.16022,-4.74389 z m 202.55301,1.59675 c -0.58578,-0.91637 -2.54247,-2.40559 -4.34821,-3.30939 -3.90175,-1.95288 -19.93966,-6.60561 -34.38425,-9.97515 -10.06456,-2.34779 -10.85315,-2.41883 -27.02834,-2.43474 -18.67359,-0.0184 -21.50934,0.5517 -29.25561,5.8813 -3.5475,2.44076 -6.90766,6.68878 -6.00489,7.59155 0.23536,0.23536 3.18355,-1.25888 6.55155,-3.32053 8.23533,-5.04106 14.19037,-6.32988 29.0792,-6.29347 16.04075,0.0392 28.94499,2.49194 53.31618,10.13382 5.70186,1.78788 10.99082,3.28266 11.75323,3.32172 1.26126,0.0647 1.2902,-0.0791 0.32114,-1.59511 z M 230.58306,524.3525 c 13.69407,-4.45787 21.42094,-6.27807 30.21307,-7.11722 5.72275,-0.54619 7.91898,-2.09288 4.70625,-3.31436 -3.13687,-1.19264 -6.83005,-0.9049 -18.24418,1.42139 -17.16287,3.49793 -26.90145,7.12889 -31.09618,11.59397 -1.50135,1.59812 -1.53578,1.78242 -0.33296,1.78242 0.73784,0 7.37714,-1.96479 14.754,-4.3662 z m 100.97603,0.3303 c 24.18287,-19.52291 56.98221,-26.07833 83.62586,-16.71384 5.25145,1.84573 6.90225,1.89378 6.89863,0.20079 -0.004,-1.72284 -2.17698,-5.19956 -7.24061,-11.58304 -2.29632,-2.89486 -4.25871,-5.38917 -4.36087,-5.54291 -0.39985,-0.6017 -21.12803,3.15295 -30.33709,5.49518 -22.97081,5.84239 -42.55723,16.169 -51.54708,27.17733 -2.49461,3.05473 -3.43196,5.00239 -2.40748,5.00239 0.20318,0 2.61907,-1.81616 5.36864,-4.0359 z m -13.88357,2.16809 c 0,-1.84276 -5.48599,-7.24116 -12.40538,-12.20729 -15.09024,-10.83047 -38.36759,-18.8257 -62.71504,-21.54117 l -8.10496,-0.90394 -2.84903,3.26493 c -4.18614,4.79723 -8.7099,11.741 -8.7099,13.36933 0,2.22283 1.54644,2.30162 6.74796,0.34377 26.34612,-9.91665 62.24433,-3.11468 82.85283,15.6989 3.51394,3.20788 5.18352,3.84417 5.18352,1.97547 z m 111.07535,-0.30328 c 0,-2.93993 -6.3934,-5.9799 -20.48633,-9.74092 -13.83006,-3.69087 -29.7775,-5.58193 -30.95848,-3.67108 -0.86076,1.39274 3.05634,2.83746 9.97668,3.67963 8.82551,1.07402 19.18745,3.65804 31.1011,7.75585 11.25747,3.87212 10.36703,3.70235 10.36703,1.97652 z m -108.56282,-4.18375 c 0.24722,-0.64422 0.44948,-7.42536 0.44948,-15.06919 v -13.89788 l -2.10479,-2.88799 c -6.88504,-9.44698 -20.56705,-17.69158 -42.32535,-25.5047 -4.27641,-1.5356 -10.10786,-3.64923 -12.9588,-4.69695 -2.85093,-1.04772 -6.44966,-1.91197 -7.99717,-1.92056 -5.00216,-0.0278 -9.48938,3.45855 -10.52597,8.17808 -0.26577,1.21007 -2.78318,5.10983 -5.59423,8.66613 -2.81105,3.55629 -5.65962,7.60866 -6.33016,9.00525 -1.97074,4.10462 -1.04183,4.69778 9.04345,5.77475 31.62384,3.377 57.74282,13.78984 72.43982,28.87954 2.47607,2.54222 4.71621,4.62731 4.97809,4.63353 0.26189,0.006 0.67842,-0.51578 0.92563,-1.16001 z m 107.82232,-2.81355 c 0,-1.33282 -4.32064,-4.60275 -8.55893,-6.47754 -10.53015,-4.65799 -23.42093,-6.97094 -35.44299,-6.35943 -12.47989,0.6348 -30.04832,4.96042 -30.04832,7.39836 0,1.0598 12.98452,0.18619 19.99357,-1.34519 6.49031,-1.41804 18.81623,-1.59905 26.28783,-0.38604 2.85094,0.46285 9.84868,2.461 15.55055,4.44034 11.61805,4.03306 12.21829,4.16715 12.21829,2.7295 z"
       id="path3297"
       transform="matrix(0.34337074,0,0,0.35398864,-41.042221,25.699017)" /></g><g
     id="layer2"
     transform="translate(-53.487413,-94.085515)"><text
       xml:space="preserve"
       transform="matrix(0.26458333,0,0,0.26458333,28.327503,10.429274)"
       id="text168"
       style="font-size:85.3333px;white-space:pre;shape-inside:url(#rect170);display:inline;fill:#000000"><tspan
         x="97.082031"
         y="374.29304"
         id="tspan3488"><tspan
           style="font-weight:600;font-family:'URW Bookman';-inkscape-font-specification:'URW Bookman Semi-Bold';fill:#13e7fb"
           id="tspan3486">LAW</tspan></tspan></text></g><g
     id="layer3"
     transform="translate(-53.487413,-94.085515)"><text
       xml:space="preserve"
       transform="matrix(0.30904799,0,0,0.32787426,-66.629888,-66.493403)"
       id="text1062"
       style="font-style:normal;font-variant:normal;font-weight:600;font-stretch:normal;font-size:64px;font-family:'URW Bookman';-inkscape-font-specification:'URW Bookman Semi-Bold';white-space:pre;shape-inside:url(#rect1064);display:inline;fill:#fe98fa;fill-opacity:1"><tspan
         x="500.86914"
         y="572.97813"
         id="tspan3492"><tspan
           style="font-weight:bold;font-family:Knewave;-inkscape-font-specification:'Knewave Bold'"
           id="tspan3490">-vely</tspan></tspan></text></g></svg>
