<?xml version="1.0" encoding="UTF-8" standalone="no"?>
<!-- Created with Inkscape (http://www.inkscape.org/) -->

<svg
   width="89.69191mm"
   height="46.572708mm"
   viewBox="0 0 89.69191 46.572708"
   version="1.1"
   id="svg5"
   xml:space="preserve"
   xmlns="http://www.w3.org/2000/svg"
   xmlns:svg="http://www.w3.org/2000/svg"><defs
     id="defs2"><rect
       x="500.86884"
       y="516.83344"
       width="234.87946"
       height="103.20106"
       id="rect1064" /><rect
       x="97.082314"
       y="296.65118"
       width="222.96107"
       height="113.50054"
       id="rect170" /></defs><g
     id="layer4"
     transform="matrix(0.77054712,0,0,0.74743454,-82.591636,-99.6626)"><path
       style="fill:#000000;fill-opacity:1;stroke-width:0.258168"
       d="m 155.67985,195.49388 c -0.56853,-0.156 -1.81267,-1.02636 -3.1289,-2.18888 -3.69375,-3.26242 -3.35099,-3.13689 -8.51349,-3.11777 -4.88093,0.0181 -6.45725,0.24072 -14.11181,1.99322 -6.22295,1.42473 -10.74259,2.31543 -11.74908,2.31543 -0.73892,0 -0.83713,-0.0826 -0.83713,-0.70416 0,-0.38729 0.61713,-1.83228 1.3714,-3.21109 0.75427,-1.3788 2.01995,-4.15833 2.81262,-6.17673 0.79268,-2.0184 1.93425,-4.6276 2.53684,-5.79822 0.62971,-1.22331 1.27961,-2.98097 1.52828,-4.13326 0.30515,-1.41404 0.68332,-2.3434 1.28325,-3.15366 0.46783,-0.63184 1.99838,-2.90041 3.40122,-5.04127 3.74574,-5.71635 3.22237,-5.2332 5.25143,-4.84778 2.72358,0.51736 9.30871,2.9373 13.72545,5.0439 3.97314,1.89502 4.11952,1.99403 6.25982,4.23403 1.92035,2.00979 2.30088,2.29363 3.07497,2.29363 0.74635,0 1.04792,-0.20113 1.94375,-1.29638 2.07589,-2.53802 8.50574,-6.24709 14.36552,-8.28678 2.51982,-0.87711 2.96392,-0.96367 3.3313,-0.64935 0.37415,0.32012 0.0118,0.51061 -3.088,1.62367 -3.98806,1.43198 -8.55932,3.64752 -11.00521,5.33388 -0.91315,0.62958 -2.46121,1.98147 -3.44014,3.00419 l -1.77987,1.85949 0.0813,5.28917 c 0.0447,2.90904 0.13845,5.38456 0.20835,5.50115 0.0699,0.11659 1.05164,-0.66506 2.18164,-1.73701 3.60126,-3.41621 8.98172,-6.3236 15.0737,-8.14523 2.72475,-0.81476 8.35034,-1.90991 11.18775,-2.17796 2.02891,-0.19167 2.03347,-0.1938 1.98382,-0.92508 -0.0275,-0.4051 -0.61097,-1.51802 -1.30442,-2.48806 -0.69006,-0.9653 -1.57004,-2.40221 -1.95549,-3.19314 -0.38547,-0.79092 -0.95965,-1.86071 -1.27599,-2.3773 -0.52392,-0.85561 -0.53781,-0.96375 -0.156,-1.21422 0.34975,-0.22945 0.5454,-0.0437 1.18193,1.12233 0.41954,0.76852 1.55286,2.6108 2.51848,4.09398 2.12186,3.25914 2.89238,4.78683 3.01912,5.98594 0.0526,0.49764 1.09704,3.00871 2.32098,5.58015 1.22395,2.57144 2.38972,5.24592 2.59061,5.94331 0.20089,0.69738 0.7639,1.86682 1.25114,2.59875 0.48724,0.73193 1.28635,1.93243 1.77582,2.66777 0.9406,1.41311 1.11708,2.33642 0.5408,2.82947 -0.3844,0.32889 -6.11105,-0.59068 -12.74561,-2.04666 -3.70055,-0.8121 -8.67688,-1.59786 -13.47691,-2.12801 -4.11265,-0.45423 -4.93369,-0.17301 -9.14237,3.13135 -1.40422,1.10251 -2.8964,2.13889 -3.31594,2.30308 -1.07279,0.41984 -4.64757,0.59941 -5.77489,0.29011 z m -24.392,-6.23249 c 4.92172,-1.41389 7.38961,-1.84381 11.60541,-2.0217 4.13071,-0.1743 6.85343,0.26441 9.43009,1.51946 1.74446,0.84971 2.13905,0.92099 2.13905,0.38638 0,-0.4615 -1.27722,-1.58586 -2.57953,-2.27079 -1.23725,-0.65071 -5.26198,-1.28919 -8.09968,-1.28491 -3.80416,0.006 -9.57707,1.04844 -14.23895,2.57184 -1.32854,0.43414 -3.52953,1.09004 -4.89109,1.45756 -2.43868,0.65825 -4.32943,1.46865 -4.64167,1.98948 -0.56606,0.94424 0.83067,0.65349 11.27637,-2.34732 z m 29.01996,2.67832 c 1.14146,-0.58966 1.55455,-1.6703 0.91639,-2.39725 -0.8801,-1.00258 -4.10144,-1.02703 -5.28369,-0.0401 -0.48887,0.40811 -0.53953,0.59323 -0.32878,1.20127 0.51737,1.4927 2.95652,2.13473 4.69608,1.23609 z m 37.37996,-0.42604 c 0,-0.97472 -10.74852,-4.26987 -17.57622,-5.3883 -6.22324,-1.01942 -9.75435,-0.9583 -13.4829,0.23336 -1.75428,0.56067 -4.04182,1.96714 -4.23868,2.6061 -0.17018,0.55237 1.7273,0.21848 3.33963,-0.58766 0.72545,-0.36272 2.06169,-0.79615 2.96941,-0.96318 2.28583,-0.42062 8.57687,-0.35363 11.19007,0.11915 2.70679,0.48972 9.58528,2.21059 13.60328,3.40329 3.37898,1.00301 4.19541,1.11534 4.19541,0.57724 z m -71.1258,-3.15327 c 9.24997,-2.8777 13.91865,-3.72759 19.21205,-3.49738 3.5225,0.1532 5.57827,0.74973 7.88845,2.28905 1.36141,0.90713 1.60148,0.99147 1.74265,0.61222 0.11571,-0.31086 -0.18742,-0.76758 -1.03375,-1.5575 -1.57885,-1.47363 -3.70699,-2.52304 -5.4122,-2.66882 -1.15773,-0.099 -1.30553,-0.16734 -0.9467,-0.43784 0.23387,-0.17629 0.34835,-0.44876 0.2544,-0.60546 -0.51135,-0.85298 -6.45143,-2.30945 -10.49205,-2.57259 -2.06905,-0.13474 -3.16562,-0.0441 -6.24691,0.51659 -4.34602,0.79076 -6.62972,1.64957 -8.14557,3.06322 -1.0436,0.97325 -1.06001,1.01198 -0.43316,1.02232 0.35834,0.006 1.67417,-0.34893 2.92406,-0.78854 5.60671,-1.97198 10.5143,-2.69697 14.09595,-2.08236 1.04885,0.17999 2.36468,0.37428 2.92407,0.43177 0.55939,0.0575 1.81801,0.31745 2.79693,0.57769 l 1.77987,0.47315 -3.94113,0.15868 c -4.90562,0.1975 -7.02865,0.59371 -13.78004,2.57167 -5.58454,1.63611 -8.65528,2.93295 -8.80178,3.7172 -0.0469,0.25091 -0.0172,0.45621 0.0659,0.45621 0.0831,0 2.58015,-0.75567 5.54895,-1.67928 z m 69.55078,0.56523 c -0.20114,-0.32438 -0.87301,-0.85155 -1.49305,-1.17149 -1.33975,-0.69129 -6.8467,-2.33831 -11.80655,-3.53108 -3.45587,-0.8311 -3.72665,-0.85624 -9.28074,-0.86188 -6.41196,-0.007 -7.38567,0.1953 -10.04552,2.08192 -1.21811,0.864 -2.37189,2.36775 -2.0619,2.68732 0.0808,0.0833 1.09314,-0.44563 2.24961,-1.17543 2.82777,-1.78448 4.87256,-2.2407 9.98495,-2.22782 5.50792,0.0139 9.93886,0.88212 18.30721,3.58726 1.95785,0.63289 3.77393,1.16203 4.03572,1.17585 0.43308,0.0229 0.44301,-0.028 0.11027,-0.56465 z m -69.01269,-3.05282 c 4.70215,-1.57804 7.35533,-2.22237 10.37429,-2.51942 1.96502,-0.19335 2.71914,-0.74086 1.61599,-1.17325 -1.07711,-0.42218 -2.34524,-0.32032 -6.26452,0.50316 -5.89323,1.23823 -9.23717,2.52355 -10.67752,4.10413 -0.51552,0.56572 -0.52734,0.63096 -0.11433,0.63096 0.25335,0 2.53309,-0.69551 5.06609,-1.54558 z m 34.67222,0.11692 c 8.30369,-6.91089 19.56602,-9.23144 28.71467,-5.91651 1.8032,0.65337 2.37004,0.67037 2.36879,0.0711 -0.001,-0.60987 -0.74751,-1.84059 -2.48621,-4.10027 -0.78849,-1.02475 -1.46232,-1.9077 -1.4974,-1.96213 -0.13729,-0.21299 -7.25474,1.11611 -10.41687,1.94523 -7.8875,2.06814 -14.6129,5.72365 -17.69975,9.62047 -0.85658,1.08134 -1.17844,1.77079 -0.82666,1.77079 0.0698,0 0.89931,-0.6429 1.84343,-1.42866 z m -4.76721,0.76748 c 0,-0.65232 -1.88373,-2.56329 -4.25965,-4.32125 -5.18154,-3.83386 -13.17431,-6.66408 -21.53451,-7.62532 l -2.78301,-0.31999 -0.97827,1.15575 c -1.4374,1.69816 -2.99072,4.15618 -2.99072,4.73259 0,0.78686 0.531,0.81475 2.31705,0.12169 9.04649,-3.51038 21.37288,-1.10256 28.44924,5.55723 1.20658,1.13556 1.77987,1.3608 1.77987,0.6993 z m 38.14002,-0.10736 c 0,-1.0407 -2.1953,-2.11682 -7.0344,-3.44818 -4.74884,-1.30652 -10.22472,-1.97594 -10.63024,-1.29952 -0.29556,0.49302 1.04946,1.00443 3.4257,1.30255 3.03042,0.38019 6.58841,1.29491 10.67921,2.74548 3.86549,1.37069 3.55973,1.31059 3.55973,0.69967 z m -37.27729,-1.481 c 0.0849,-0.22805 0.15434,-2.62849 0.15434,-5.33432 v -4.91969 l -0.72273,-1.02232 c -2.36412,-3.34412 -7.06212,-6.26262 -14.53328,-9.02837 -1.4684,-0.54359 -3.47075,-1.29179 -4.44968,-1.66267 -0.97893,-0.37088 -2.21462,-0.67682 -2.74599,-0.67986 -1.7176,-0.01 -3.25838,1.22429 -3.61431,2.89495 -0.0913,0.42835 -0.95567,1.80882 -1.9209,3.06771 -0.96523,1.25889 -1.94335,2.69338 -2.17359,3.18776 -0.6767,1.45299 -0.35774,1.66296 3.10525,2.04419 10.85871,1.19542 19.8272,4.88145 24.87372,10.22303 0.85021,0.89992 1.61941,1.63802 1.70933,1.64022 0.0899,0.002 0.23295,-0.18258 0.31784,-0.41063 z m 37.02303,-0.99597 c 0,-0.4718 -1.48358,-1.62932 -2.93889,-2.29297 -3.61574,-1.64888 -8.04206,-2.46763 -12.17008,-2.25117 -4.28523,0.22471 -10.31772,1.75594 -10.31772,2.61894 0,0.37516 4.45851,0.0659 6.86521,-0.47618 2.22858,-0.50197 6.46094,-0.56605 9.02647,-0.13666 0.97893,0.16385 3.38175,0.87117 5.33961,1.57183 3.98929,1.42766 4.1954,1.47513 4.1954,0.96621 z"
       id="path3297" /></g><g
     id="layer2"
     transform="translate(-114.2166,-80.454267)"><text
       xml:space="preserve"
       transform="matrix(0.26458333,0,0,0.26458333,88.078756,-3.2019663)"
       id="text168"
       style="font-size:85.3333px;white-space:pre;shape-inside:url(#rect170);display:inline;fill:#000000"><tspan
         x="97.082031"
         y="374.29304"
         id="tspan3573"><tspan
           style="font-weight:600;font-family:'URW Bookman';-inkscape-font-specification:'URW Bookman Semi-Bold';fill:#13e7fb"
           id="tspan3571">LAW</tspan></tspan></text></g><g
     id="layer3"
     transform="translate(-114.2166,-80.454267)"><text
       xml:space="preserve"
       transform="matrix(0.30904799,0,0,0.32787426,0.3209054,-81.40222)"
       id="text1062"
       style="font-style:normal;font-variant:normal;font-weight:600;font-stretch:normal;font-size:64px;font-family:'URW Bookman';-inkscape-font-specification:'URW Bookman Semi-Bold';white-space:pre;shape-inside:url(#rect1064);display:inline;fill:#fe98fa;fill-opacity:1"><tspan
         x="500.86914"
         y="572.97813"
         id="tspan3577"><tspan
           style="font-weight:bold;font-family:Knewave;-inkscape-font-specification:'Knewave Bold'"
           id="tspan3575">-vely</tspan></tspan></text></g></svg>
