<?xml version="1.0" encoding="UTF-8" standalone="no"?>
<!-- Created with Inkscape (http://www.inkscape.org/) -->

<svg
   width="106.37234mm"
   height="68.59861mm"
   viewBox="0 0 106.37234 68.59861"
   version="1.1"
   id="svg5"
   xml:space="preserve"
   xmlns="http://www.w3.org/2000/svg"
   xmlns:svg="http://www.w3.org/2000/svg"><defs
     id="defs2"><rect
       x="500.86884"
       y="516.83344"
       width="234.87946"
       height="103.20106"
       id="rect1064" /><rect
       x="97.082314"
       y="296.65118"
       width="222.96107"
       height="113.50054"
       id="rect170" /></defs><g
     id="layer4"
     transform="translate(-33.725049,-103.87008)"><path
       id="path3373"
       style="fill:#90fe59;fill-opacity:1;stroke-width:0.1206"
       d="m 94.601887,172.37548 c -2.761884,-2.84825 2.85841,-1.90042 4.435128,-2.02951 4.570355,0.31081 0.191736,3.459 -2.367026,2.12025 -0.688107,-0.0293 -1.384054,0.0107 -2.068102,-0.0907 z m 6.065773,-0.46778 c 0.62613,-2.1222 -6.993233,-2.00251 -6.401613,-0.11813 1.899222,0.5943 4.513864,0.70171 6.401613,0.11813 z m 3.91333,0.3894 c -4.00091,-1.61576 1.96918,-2.25918 3.81573,-1.98048 2.49486,2.22489 -2.64508,2.05077 -3.81573,1.98048 z m 3.64359,-0.50888 c 1.42418,-2.07217 -4.10147,-1.14708 -4.82992,-0.52095 0.73945,1.48023 3.52779,0.58635 4.82992,0.52095 z m -21.649023,0.35797 c -5.087014,-2.33771 8.407779,-2.83384 4.256406,0.0763 -1.416961,0.0586 -2.842212,0.0251 -4.256406,-0.0763 z m 4.63949,-0.39975 c 0.728654,-2.66829 -9.337049,-0.4604 -3.569262,0.20014 1.18076,5.3e-4 2.433612,0.19636 3.569262,-0.20014 z m -57.24459,0.18949 c 2.015264,-0.16628 0.400454,0.16717 0,0 z m -0.1815,-0.23766 c 1.207208,-0.18086 0.236206,0.18414 0,0 z m 47.09956,-0.26225 c -4.863106,-2.86182 6.220441,-1.54187 1.29006,0.0669 l -0.73641,-0.01 -0.55365,-0.0571 z m 2.22941,-0.48432 c -0.206943,-2.477 -5.892531,0.0147 -1.18942,0.22778 l 0.834479,-0.0413 0.354921,-0.18643 z m 27.843063,0.30518 c -1.0834,-2.91117 6.96023,-1.20345 2.46402,0.17412 -0.78081,-0.0623 -1.7953,0.44009 -2.46402,-0.17412 z m 1.93937,-0.0678 c 5.15503,-1.2521 -4.53019,-1.46278 -0.74626,0.0807 l 0.74624,-0.0807 z m 2.18097,-1.28628 c -0.17728,-0.79256 0.52804,0.72511 0,0 z m 3.22404,0.0511 c -1.69463,-3.07214 7.41038,-1.81421 2.2714,-0.17414 -0.7462,0.11279 -1.50969,0.38061 -2.2714,0.17414 z m 1.91876,-0.40358 c 5.36737,-1.64623 -4.85714,-1.06235 -0.99932,0.15491 l 0.9993,-0.15491 z m -45.597963,0.24443 c -5.606868,-1.60339 4.575522,-3.10111 2.179814,0.12905 -0.727676,0.11768 -1.461054,-0.0299 -2.179814,-0.12905 z m 2.16905,-0.25395 c 0.607487,-2.39073 -6.403527,-0.89767 -2.02486,-0.029 0.662776,0.031 1.383998,0.44789 2.02486,0.029 z m 39.011093,-0.0589 c -0.49122,-0.7305 0.85492,0.46128 0,0 z m -45.435983,-0.42973 c -3.284217,-3.01324 4.540943,-0.97113 0,0 z m 1.00379,-0.49707 c -0.306296,-3.0518 -3.430674,1.25709 0,0 z m 51.825833,0.40767 c -1.396,-2.73657 4.25697,-0.60911 0.59203,0.14795 l -0.59205,-0.14796 z m 1.45463,-0.45776 c -0.0594,-2.04457 -2.80969,1.14537 0,0 z m -58.122523,-0.20689 c -1.36466,-2.04397 2.860832,0.0382 0,1.7e-4 z m 0.77487,-0.45155 c -0.742248,-0.61162 -1.121929,0.57587 0,0 z m 59.920363,0.34799 c -0.41177,-2.13985 3.0484,0.46317 0,0 z m 0.94613,-0.35724 c -0.51684,-0.50584 -1.00652,0.70734 0,0 z m -32.965533,-0.98586 c -4.756366,-1.08277 -6.903313,-7.36841 -12.579516,-5.73647 -9.010175,0.25753 -17.611184,3.55946 -26.529458,4.48757 -2.040893,-2.68742 3.040325,-6.55855 3.368239,-10.01194 1.225629,-3.40049 2.756444,-6.61067 4.643626,-9.74723 -0.412315,-3.31374 3.195466,-6.6593 4.892359,-9.72908 1.840877,-2.66769 3.111149,-6.96624 7.150212,-4.26454 7.620747,2.60372 16.083533,5.14436 21.202628,11.79527 5.495683,-6.63048 14.157273,-9.33115 22.102703,-11.7686 3.49453,-2.09516 5.02612,0.11092 6.14183,3.13952 1.77996,3.29711 4.44726,6.35938 5.57885,9.86247 -0.39864,2.73914 3.25026,6.25487 3.80615,9.37312 0.68108,3.98516 5.16376,7.51245 4.61441,11.16828 -4.51407,0.27634 -9.07978,-1.53064 -13.57605,-2.22031 -6.49953,-1.17363 -13.37682,-3.2349 -19.91324,-1.35144 -2.64168,3.48207 -6.321401,5.87116 -10.902743,5.00338 z m 5.160533,-0.70396 c 4.02354,-2.22422 6.70095,-6.82843 12.1003,-5.34938 8.93376,0.42439 17.49068,3.45647 26.34013,4.49458 2.48079,-2.17356 -3.37966,-5.87832 -3.29114,-9.07605 -1.65415,-3.39069 -2.7115,-6.7173 -4.78725,-10.00605 0.39921,-2.90297 -2.70488,-6.25112 -4.37915,-9.31028 -1.98116,-1.44178 -1.73381,-6.66178 -4.9269,-5.19602 -7.8422,2.10606 -16.01152,4.75535 -22.124512,10.31956 -2.619011,4.96304 -5.020017,-3.33779 -8.481338,-3.66362 -5.597854,-3.22351 -11.75584,-5.5525 -18.045743,-6.96268 -2.460275,2.69549 -4.327287,6.37226 -6.503362,9.47365 -2.042283,2.14943 -1.776786,4.01997 -2.456938,6.18883 -2.225458,3.54089 -3.295567,7.00763 -4.89513,10.80404 -0.702259,2.58273 -6.461628,8.81272 -0.205763,7.1114 8.923875,-1.35649 17.694461,-4.71927 26.821963,-4.08152 4.672745,-0.124 6.162316,6.41299 11.171459,5.68167 1.22446,-0.0501 2.510775,0.0839 3.663374,-0.42813 z m -4.645233,-3.55646 c -5.46839,-3.52699 7.947183,-4.25892 3.644746,-0.20653 -1.111129,0.58361 -2.477364,0.68813 -3.644746,0.20653 z m 2.25073,-0.0783 c 5.370363,-0.84793 -2.043732,-4.94907 -3.320715,-1.46205 -0.559961,0.98242 2.534174,1.9009 3.320715,1.46205 z m -39.08557,-0.29505 c 2.031528,-1.88063 6.286352,-1.93735 9.066362,-3.2107 6.727981,-2.11186 14.042636,-3.5088 21.022797,-1.90943 2.30195,0.01 6.626945,4.76346 2.004756,2.03475 -5.100208,-2.42948 -11.09166,-1.61806 -16.467138,-0.67999 -5.255282,1.1896 -10.354241,3.03056 -15.618278,4.14695 z m 6.51207,-1.65415 c 8.025937,-2.27129 16.816501,-4.99629 25.020889,-2.06178 1.757745,0.97897 3.584449,1.74763 1.000474,0.0925 -4.895489,-2.859 -10.905108,-1.78947 -16.24668,-1.18348 -5.416391,1.3446 -10.817243,2.88432 -16.066723,4.74177 2.132546,-0.35533 4.216601,-0.99096 6.29204,-1.58905 z m 69.696443,1.83843 c -9.58273,-2.52928 -19.55246,-6.48142 -29.56553,-4.06233 -1.27373,0.94876 -6.628111,2.76904 -2.87128,0.17611 5.34136,-3.12997 11.9755,-2.2218 17.79042,-1.21773 5.17303,1.21694 10.34955,2.59732 15.28515,4.5707 1.39017,0.74627 -0.0103,0.95765 -0.63876,0.53325 z m -0.37209,-0.65279 c -7.97797,-2.60269 -16.18351,-5.48708 -24.71238,-4.96024 -2.75385,-0.22985 -7.21551,1.4693 -8.1248,2.92815 4.98372,-3.21659 11.26576,-2.51368 16.85911,-1.83909 5.56738,0.93142 10.91715,2.77497 16.38049,4.13931 l -0.40242,-0.26817 z m -3.68143,-2.66768 c -8.3119,-2.81013 -17.38942,-5.2246 -26.09878,-2.92673 -1.50383,0.23086 -6.678152,4.73765 -3.74865,1.10352 3.03348,-3.02904 7.42187,-3.37909 11.46888,-3.17391 4.25715,-0.14785 8.3972,1.1079 12.53832,2.00062 2.65137,1.10572 10.01058,2.31906 9.75916,4.26552 -1.31137,-0.4072 -2.6153,-0.83793 -3.91893,-1.26902 z m 3.87149,0.80094 c -5.68464,-2.65064 -11.88773,-4.17125 -18.05453,-5.2504 -4.24447,-0.43135 -9.0372,-0.836 -12.97238,1.16128 -2.10407,1.11059 -4.231343,3.31421 -0.86713,0.90551 4.33905,-2.34734 9.55033,-1.80964 14.28896,-1.44685 6.0534,0.7392 11.88009,2.97956 17.60508,4.63046 z m -75.153803,0.0948 c 2.956672,-2.18145 7.37933,-2.85098 11.002036,-4.04135 5.341372,-1.59831 10.910574,-2.34572 16.476805,-1.71246 2.326871,-0.35143 8.080205,3.91027 6.654709,4.45632 -4.563951,-4.21206 -11.20305,-3.78861 -16.913807,-3.02315 -5.81697,1.06579 -11.409518,3.0243 -17.055943,4.70753 l -0.184875,-0.0688 z m 3.64288,-1.01499 c 7.667454,-2.48842 15.653138,-4.89611 23.80809,-3.82479 2.626995,-0.37539 9.721156,5.46354 4.458646,1.25172 -3.719522,-2.78359 -8.64641,-2.03637 -12.981149,-1.88991 -6.309883,1.14902 -12.585131,2.78583 -18.483897,5.328 0.358329,0.30594 2.325762,-0.68 3.19831,-0.86502 z m 35.27172,-1.16438 c 3.343993,-4.98466 9.254423,-7.74878 14.798453,-9.6823 4.57877,-1.55266 9.34591,-2.38327 14.11943,-3.05334 0.98963,1.75936 4.6716,5.26353 3.72039,6.41283 -10.88781,-4.84996 -24.19538,-1.58672 -32.547523,6.60422 l -0.0907,-0.28137 z m 1.885163,-1.77152 c 8.43226,-6.95914 20.75645,-9.34528 30.89614,-4.81615 -1.97457,-3.16736 -3.86065,-7.36035 -8.27826,-5.18218 -8.23352,1.57247 -16.92766,4.06524 -22.93588,10.24934 l 0.318,-0.25098 z m 33.32606,1.81826 c -5.23179,-2.00257 -10.57598,-3.87926 -16.21746,-4.1969 -4.29264,-1.85436 3.58403,-0.89046 5.74578,-0.32675 2.91982,0.92667 10.12595,2.02402 10.47168,4.52365 z m 0.0792,-0.46496 c -5.15357,-2.58181 -11.00663,-4.61713 -16.83781,-4.19195 3.89585,0.60546 7.88136,0.91717 11.58263,2.4479 1.59804,0.50303 4.35988,1.66261 5.25518,1.74405 z m -73.323773,0.37447 c 3.39396,-3.11827 8.779737,-3.91351 13.298749,-4.81276 2.326543,-0.77065 7.030831,0.4 2.222631,0.8791 -5.342594,0.20983 -10.210848,2.59168 -15.269381,4.00674 l -0.251999,-0.0731 z m 2.21712,-0.83735 c 4.677132,-1.65757 9.437719,-3.39761 14.459691,-3.47866 -2.991948,-0.94594 -9.823271,1.03742 -13.881018,2.78508 -1.68085,0.39889 -3.210968,1.85985 -0.578673,0.69358 z m 31.88371,0.19121 c -7.549835,-7.24514 -19.188949,-9.81052 -29.077171,-6.30178 -5.299783,2.61515 0.376593,-4.09256 1.672181,-5.63606 9.645993,1.05029 19.903739,3.50924 27.036548,10.51256 0.879876,0.4289 2.188742,3.41553 0.368442,1.42528 z m 0.1815,-0.39523 c -0.407604,-0.48657 -0.57344,-0.33304 0,0 z m -1.1552,-1.16909 c -7.068763,-6.57026 -16.925544,-8.92858 -26.25148,-10.08191 -1.162702,1.32519 -4.091084,5.04774 -3.512276,5.54879 8.875669,-3.43579 19.354637,-2.57391 27.240868,2.88923 0.225772,-0.13089 3.960928,3.11688 2.522888,1.64389 z m 2.37932,0.39927 c -6.599875,-8.03008 -17.413714,-10.88845 -27.334717,-12.02068 -5.807622,0.71446 1.566689,-5.26445 2.142937,-7.69367 1.751165,-5.97457 7.646381,-1.15013 11.579793,-0.27301 5.299647,2.17168 11.163641,4.64419 14.205407,9.80303 -0.107471,3.45202 0.166266,6.98486 -0.2666,10.37411 l -0.3268,-0.18978 z m -0.31764,-10.99101 c -5.051291,-6.36628 -13.306888,-8.67851 -20.701278,-11.19613 -4.278226,-0.80143 -5.100213,6.6538 -8.170838,9.10433 0.289984,1.60713 6.330073,0.56842 8.646351,1.78886 7.657782,1.67114 15.605306,4.66376 20.710795,10.90164 -0.0769,-3.31467 0.236322,-6.74648 -0.07761,-9.98998 -0.135808,-0.20291 -0.271616,-0.40581 -0.407424,-0.60872 z m -8.59003,2.05934 c -4.827458,-2.9793 -10.466999,-4.37607 -15.890075,-5.55626 1.987369,-3.27325 8.00906,0.92013 11.304906,1.54316 1.216033,0.30238 9.27926,4.22888 4.585169,4.0131 z m 1.12548,-0.55899 c -4.820222,-3.31354 -10.579612,-5.19607 -16.32586,-6.07323 0.60811,2.26332 6.855384,1.72851 9.502827,3.52365 1.932901,-0.0432 6.089936,4.19663 6.823033,2.54958 z m -0.97814,-2.92982 c -4.140407,-2.61178 -8.856405,-4.16368 -13.57843,-5.35165 1.517485,-3.25915 7.029076,1.11058 9.85593,1.51563 1.179574,0.0988 8.93519,5.09581 3.7225,3.83602 z m 1.29173,-0.0563 c -2.812631,-3.3204 -8.149509,-4.54921 -12.33753,-5.98053 -4.856264,-0.99598 0.871094,1.89571 2.943088,1.91765 3.283699,0.82536 6.496447,3.14077 9.394442,4.06288 z m 9.27077,7.37208 c 0.11157,-1.82007 -0.215781,-3.7872 0.153479,-5.52092 4.965804,-6.51422 13.232504,-9.08126 20.688254,-11.56956 4.94154,-3.08275 5.57316,4.12435 8.07448,6.90353 1.30118,1.75648 3.01243,3.90588 -0.45989,3.34111 -9.96915,1.20709 -20.67874,3.94083 -27.690073,11.59374 -1.421721,2.2489 -0.492766,-4.52671 -0.76625,-4.7479 z m 1.76972,3.14535 c 7.291803,-6.68826 17.372353,-9.29778 26.984523,-10.29195 3.78004,0.64676 -0.63634,-2.6344 -1.01556,-4.27426 -1.90929,-2.02613 -2.26936,-7.86482 -6.03138,-5.57781 -6.94453,2.15317 -14.20012,4.59613 -19.57702,9.68407 -2.133347,1.28205 -1.986884,3.52626 -1.882283,5.63465 0.005,2.17057 0.0099,4.34114 0.01488,6.51171 0.469056,-0.59079 0.953963,-1.17083 1.50684,-1.68641 z m 6.469523,-6.76137 c 1.59035,-3.75604 7.90327,-4.68129 11.84973,-6.0434 1.79299,0.23988 5.51644,-2.63265 6.14343,0.0895 -3.84824,1.33503 -8.27379,1.70914 -12.09044,3.5171 -1.98724,0.23494 -4.22803,3.02168 -5.90272,2.43679 z m 1.73926,-0.79972 c 4.8665,-2.81754 10.41914,-4.06891 15.85653,-5.21736 -1.6921,-2.09681 -6.80173,1.18122 -9.51057,1.40717 -2.27841,0.89 -7.94333,2.58548 -7.43558,4.48308 l 0.42133,-0.26351 0.66832,-0.40936 z m -1.86395,-2.84252 c 1.1626,-3.32086 7.11884,-4.16089 10.41056,-5.71013 1.70284,-1.39262 8.07465,-1.33557 3.55369,0.52616 -4.67439,1.32524 -9.2554,3.03549 -13.46467,5.47865 l -0.26022,-0.0643 -0.23936,-0.23039 z m 1.22913,-0.44881 c 4.40795,-2.66323 9.41273,-3.99529 14.25019,-5.61596 -1.86073,-1.36837 -5.13776,1.19969 -7.40837,1.47774 -2.27403,1.18935 -7.4526,2.3011 -7.55661,4.51706 z m 25.26127,11.87225 c -5.55522,-2.45199 -11.86859,-4.16784 -17.88838,-2.48106 -1.78205,0.25547 -9.71726,1.38256 -4.26659,-0.46702 6.56867,-2.0069 13.83298,-2.22568 20.13563,0.802 0.73771,-0.0435 4.92332,3.1855 2.01934,2.14608 z m 0.0605,-0.59367 c -5.98232,-3.7859 -13.54588,-4.45442 -20.28579,-2.49349 -2.07347,0.37451 -4.2847,1.17834 -0.75691,0.63583 4.59915,-0.64862 9.31156,-1.74309 13.90365,-0.2991 2.02527,0.25289 6.77377,2.43221 7.13905,2.15676 z m -71.208963,0.56473 c 2.825957,-3.37979 7.961825,-3.53947 12.042602,-4.32014 4.488155,-0.2546 9.118176,0.5926 13.250527,2.29247 1.687209,1.84317 -4.331939,-0.94659 -5.482014,-0.38751 -4.029986,-1.04795 -8.311579,-0.98514 -12.349307,0.23165 -2.492296,0.31264 -5.291579,2.14473 -7.461808,2.18353 z m 3.99303,-1.49741 c 4.425953,-1.34442 9.312155,-2.81211 13.89005,-1.55211 1.826988,0.26824 9.851418,1.66429 4.312181,0.25696 -5.913152,-1.79155 -12.286296,-1.65502 -18.079371,0.52904 -2.565957,0.55145 -4.697524,2.74095 -0.982756,1.07809 z m 31.53718,-19.22965 c -0.204677,-3.19442 -1.736088,-9.12262 0.851569,-10.85743 0.0528,3.0853 1.731099,9.29426 -0.851619,10.85738 z m 0.76577,-0.43963 c -0.350533,-2.81221 1.197412,-8.72044 -0.740357,-9.93055 0.340232,2.85211 -1.169271,8.60044 0.740357,9.93058 z m -7.2845,-0.39855 c -3.550704,-4.18545 -7.348142,-8.20226 -10.698202,-12.5381 2.540387,-1.65733 5.299503,4.80601 7.647951,6.46563 0.983041,1.45296 6.228468,5.7793 3.525356,6.48101 l -0.475585,-0.40854 z m 0.97357,-0.17978 c -2.107838,-4.15291 -5.997378,-7.22282 -8.881119,-10.87807 -0.818275,-2.02354 -3.870104,-2.39187 -1.50621,-0.33925 3.238818,3.84037 6.566376,7.61884 9.89649,11.36976 l 0.338188,0.1129 0.152651,-0.26533 z m -6.75289,-0.17182 c -1.900287,-2.38763 -8.633126,-3.69566 -7.779307,-6.68387 3.24264,1.7732 8.31791,3.984 9.768957,7.15897 -0.551781,0.74235 -1.493852,-0.22161 -1.98965,-0.4751 z m 1.71473,0.30292 c -1.893738,-2.57869 -6.252823,-4.93907 -9.42535,-6.66209 0.688897,2.65636 5.743028,3.89411 7.95262,6.12288 0.44852,-0.13081 0.97664,1.22699 1.47273,0.53921 z m 21.467663,0.0695 c 1.2461,-2.97252 6.50071,-4.70228 9.4496,-6.94679 4.35581,0.41602 -3.16378,3.30735 -4.30339,4.55047 -1.57757,0.60892 -3.47815,3.3249 -5.14621,2.39632 z m 2.49733,-1.0162 c 1.74066,-2.0179 8.05533,-3.8516 7.73544,-5.75495 -3.61592,1.44361 -6.72926,4.09156 -10.05437,6.13629 0.0302,1.64643 1.71962,-0.15725 2.31893,-0.38134 z m -7.01537,1.02167 c 0.27209,-3.71862 5.01578,-6.32245 7.08725,-9.5422 0.8229,-1.40332 5.32128,-6.0446 3.80511,-1.99464 -3.34063,4.00306 -6.73595,8.05644 -10.47809,11.65317 l -0.41422,-0.11633 z m 1.05267,-0.7475 c 3.30768,-4.02929 7.25697,-7.5942 10.12733,-11.94525 -2.68374,0.49433 -5.13091,5.70935 -7.80643,7.80544 -0.29853,0.39361 -5.20724,5.44984 -2.3209,4.13981 z m -3.83567,-1.59155 c -0.608938,-3.32597 2.11362,-7.1013 2.98804,-10.50395 0.69874,-1.38555 2.31916,-8.7604 3.67939,-5.12544 -2.12171,5.14837 -3.84765,10.45729 -5.82054,15.65834 l -0.33113,0.13542 -0.51573,-0.16432 z m 1.73143,-3.1864 c 1.47542,-4.32413 3.04613,-8.62508 4.77225,-12.85194 -2.37261,-0.39595 -2.81852,6.2305 -4.30874,8.55903 -0.3927,1.66021 -3.53534,7.75244 -1.30623,6.66483 0.31944,-0.77642 0.57173,-1.578 0.84272,-2.37192 z m -9.095373,2.94184 c -2.164512,-5.25882 -3.759765,-10.7512 -5.951964,-15.99233 2.321654,-2.50541 3.090056,4.86727 4.175802,6.4879 0.163778,2.18778 4.989463,9.61129 1.776162,9.50443 z m 0.92065,-0.52255 c -1.405165,-5.26433 -3.581672,-10.31305 -5.46291,-15.42692 -2.561324,-0.87566 1.738043,5.63043 1.82129,7.57541 1.130812,1.75771 1.906532,8.38067 3.64162,7.85151 z m -21.89285,-4.27246 c -0.248455,-2.65838 -5.717653,-3.77315 -0.916577,-5.15622 1.16028,-4.74422 2.735959,1.11911 5.010946,1.4742 -2.154161,0.56554 -2.592971,3.21864 -4.094369,3.68202 z m 0.97127,-1.15111 c 0.60614,-2.22544 4.664799,-2.46196 0.602334,-3.74445 -1.301262,-4.50328 -1.917602,1.11883 -4.546424,1.21953 2.378349,-0.65526 2.916742,5.54901 3.94409,2.52492 z m -1.0203,-1.80286 c -2.572784,-3.66009 4.097998,-0.67057 0,0 z m 0.67989,-0.40632 c 0.696267,-1.76023 -2.076781,0.18829 0,0 z m 49.482173,3.44998 c -0.34437,-2.59566 -5.80822,-3.84971 -1.06215,-5.23861 0.77729,-3.27816 2.12444,-1.77674 3.15098,0.35139 4.63755,1.01902 -1.65575,3.05802 -2.08883,4.88722 z m 0.50914,-0.54496 c 0.37609,-2.60005 5.28974,-3.13001 0.83904,-4.52459 -1.08444,-4.48643 -1.85816,1.21273 -4.27028,1.34895 2.01422,0.26868 2.3465,2.93113 3.43124,3.17564 z m -0.58931,-2.4452 c -3.06071,-2.62466 4.44404,-1.21781 0,0 z m 0.6147,-1.0362 c -1.85878,-0.80297 0.36333,2.41287 0,0 z m -7.43162,2.31081 c -1.44017,-4.33259 4.99845,0.75418 0,0 z m 1.42504,-0.72951 c -2.23549,-2.29594 -1.41128,2.34515 0,0 z m -38.785393,0.55226 c -1.475159,-3.43392 4.706498,-0.21243 0,0 z m 1.01314,-0.26184 c 0.875246,-2.26183 -2.482548,0.25697 0,0 z m 17.83071,-3.8323 c 0.228553,-3.58803 -3.804574,-4.60451 -5.054,-6.61687 3.351979,-0.46873 4.028913,-3.9228 5.59526,-5.80989 0.958505,2.63701 2.531157,5.08213 5.424713,6.13908 -2.58676,1.35359 -4.403277,4.02354 -5.600895,6.58395 z m 0.80122,-0.39313 c -0.359259,-3.33358 3.742643,-4.51362 4.577193,-6.11974 -3.61357,0.28225 -3.519395,-5.04244 -5.380064,-5.33115 0.590548,3.34845 -4.030915,4.3748 -4.550949,5.83762 3.393186,0.5457 3.978594,4.58564 5.35382,5.61327 z m -0.69088,-3.91791 c -2.052064,-1.63076 -2.48995,-2.034 -0.236215,-3.73688 0.172231,-1.92108 3.665388,2.18241 2.680265,2.30373 -1.073337,-0.37087 -1.753774,3.15551 -2.44405,1.43315 z m 0.89825,-0.62184 c 3.147983,-0.9782 -0.211659,-2.38648 -0.74099,-3.1805 -2.191732,1.82272 -1.819234,2.15314 0.28175,3.78268 z m 11.334453,5.07998 c -3.57363,-2.22955 2.58025,-3.89389 2.12448,-1.07551 -0.67111,0.24884 -1.3289,1.70867 -2.12448,1.07551 z m 0.90805,-0.51883 c 3.2988,-2.07384 -4.18026,-2.38714 -0.67443,0.24918 l 0.23549,0.18017 z m -25.968843,-0.1827 c -4.569625,-2.29266 5.1314,-3.67912 1.75447,-0.62202 -0.543365,0.14069 -1.151599,1.62942 -1.75447,0.62202 z m 0.85758,-0.33186 c 4.462701,-2.72037 -4.995464,-1.83834 -0.363,0.33626 z m -8.17482,-1.08389 c 0.14827,-2.60248 -5.961199,-3.7487 -1.463142,-5.20415 1.148141,-3.60148 2.544474,-3.02421 3.931815,0.0653 4.961637,1.33079 -1.92468,2.50652 -1.73263,5.28712 l -0.368386,0.0801 -0.367477,-0.22836 z m 0.87805,-0.47499 c -0.767237,-2.88992 6.241554,-3.07208 1.447683,-4.36953 -1.30953,-1.04979 -2.177129,-4.95031 -2.811025,-1.04161 -1.457036,1.49008 -3.893485,2.12771 -0.517158,3.23024 0.667425,0.30768 1.018075,3.58037 1.8805,2.1809 z m -0.83398,-2.48962 c -2.846671,-2.42612 3.355039,-2.56821 0.75284,-0.0568 -0.08214,0.51183 -0.6566,0.39384 -0.75284,0.0568 z m 0.74736,-0.56684 c 0.982761,-2.31923 -2.610353,0.14771 0,0 z m 40.085303,3.46153 c 0.15858,-2.79777 -6.30082,-3.91349 -1.29856,-5.16332 0.86382,-1.59666 2.45381,-4.51374 3.04471,-0.84707 1.38666,1.17104 4.5201,2.72353 0.81832,3.46073 -1.25014,0.30554 -1.03345,3.67775 -2.56447,2.54966 z m 0.81504,-0.33633 c -0.28478,-2.76176 6.07845,-3.18821 1.47142,-4.56053 -1.09815,-1.33894 -1.83829,-4.42394 -2.63259,-0.82261 -0.99303,1.44059 -4.59796,1.73354 -0.95333,2.84913 1.21685,0.10747 0.98091,3.46255 2.1145,2.53401 z m -0.84304,-2.88935 c -1.29913,-4.54484 4.29435,1.1438 0,0 z m 0.98007,-0.97266 c -2.7161,-0.55728 0.71077,2.24945 0,0 z m -49.224063,3.39151 c -3.831332,-2.99031 4.856921,-2.24373 0,0 z m 0.71512,-0.56997 c 0.776491,-3.36838 -3.068118,0.78769 0,0 z m 15.21805,-5.81817 c -0.474503,-1.96753 -4.550829,-3.20694 -0.852955,-4.50191 0.784755,-3.80007 4.294504,0.78765 4.453317,2.00186 -2.147863,-0.25354 -1.881499,3.31245 -3.600362,2.50005 z m 1.06109,-0.81328 c 0.497822,-1.76883 4.293132,-2.12787 0.703411,-3.32519 -1.103567,-3.75517 -2.758554,0.41282 -3.948651,1.24947 1.634763,-0.2461 2.325874,4.49651 3.24524,2.07572 z m -1.07338,-1.74442 c -0.788374,-3.14881 3.096605,0.59906 0,0 z m 0.81353,-0.19365 c 0.484624,-1.91736 -1.857789,0.38806 0,0 z m 21.844993,2.03739 c -0.66598,-1.94913 -4.42779,-3.213 -0.64149,-4.3483 0.94288,-4.49778 2.70552,0.88561 4.719,1.4204 -1.84505,0.0365 -2.72552,4.07226 -4.07751,2.9279 z m 0.77069,0 c 0.31716,-2.39391 5.06886,-2.78156 0.91277,-4.23688 -1.27264,-4.00929 -1.69026,0.95249 -3.88251,1.30639 1.50647,0.44933 2.02645,2.52479 2.96974,2.93049 z m -0.73225,-2.56185 c -0.9802,-3.5579 3.46568,0.96817 0,0 z m 0.85933,-0.64504 c -1.8346,-1.01274 0.36122,2.23098 0,0 z m 11.55381,1.70115 c -1.48044,-4.12962 5.26363,0.10173 0,0 z m 1.1779,-0.35736 c 1.32305,-2.67561 -3.29112,0.6018 0,0 z m -28.625983,-1.5626 c -3.525797,-2.21346 2.435624,-4.00831 1.64432,-0.8894 -0.508675,0.14416 -0.948096,1.88236 -1.64432,0.8894 z m 0.77344,-0.43513 c 2.533666,-2.31323 -4.08367,-2.06789 -0.341,0.40508 z m 6.658543,0.31493 c -3.448354,-2.61108 3.82238,-3.56145 0.9901,-0.28991 -0.0785,0.40811 -0.74587,0.68574 -0.9901,0.28991 z m 0.74912,-0.51397 c 2.8386,-2.74191 -4.087914,-1.35874 0,0 z" /></g><g
     id="layer2"
     transform="translate(-33.725049,-103.87008)"><text
       xml:space="preserve"
       transform="matrix(0.26458333,0,0,0.26458333,33.478296,18.20124)"
       id="text168"
       style="font-size:85.3333px;white-space:pre;shape-inside:url(#rect170);display:inline;fill:#000000"><tspan
         x="97.082031"
         y="374.29304"
         id="tspan2009"><tspan
           style="font-weight:600;font-family:'URW Bookman';-inkscape-font-specification:'URW Bookman Semi-Bold';fill:#13e7fb"
           id="tspan2007">LAW</tspan></tspan></text></g><g
     id="layer3"
     transform="translate(-33.725049,-103.87008)"><text
       xml:space="preserve"
       transform="matrix(0.30904799,0,0,0.32787426,-61.207044,-56.939885)"
       id="text1062"
       style="font-style:normal;font-variant:normal;font-weight:600;font-stretch:normal;font-size:64px;font-family:'URW Bookman';-inkscape-font-specification:'URW Bookman Semi-Bold';white-space:pre;shape-inside:url(#rect1064);display:inline;fill:#fe98fa;fill-opacity:1"><tspan
         x="500.86914"
         y="572.97813"
         id="tspan2013"><tspan
           style="font-weight:bold;font-family:Knewave;-inkscape-font-specification:'Knewave Bold'"
           id="tspan2011">-vely</tspan></tspan></text></g></svg>
